<svg width="81" height="81" viewBox="0 0 81 81" fill="none" xmlns="http://www.w3.org/2000/svg">
<path d="M14.3739 56.0033C10.6001 49.6414 9.27841 42.1207 10.6572 34.8533C12.0359 27.5859 16.0203 21.0719 21.862 16.5343C27.7038 11.9967 35.0011 9.74772 42.3836 10.2097C49.7662 10.6717 56.7262 13.8128 61.9567 19.0433C67.1871 24.2737 70.3283 31.2337 70.7903 38.6163C71.2524 45.9988 69.0034 53.2961 64.4659 59.1379C59.9283 64.9797 53.4143 68.964 46.1469 70.3428C38.8795 71.7216 31.3588 70.4 24.9969 66.6262L24.997 66.6259L14.506 69.6233C14.072 69.7473 13.6127 69.753 13.1757 69.6397C12.7387 69.5265 12.3399 69.2985 12.0207 68.9793C11.7016 68.6601 11.4735 68.2613 11.3603 67.8243C11.2471 67.3874 11.2527 66.9281 11.3768 66.494L14.3742 56.0031L14.3739 56.0033Z" stroke="#FF3A3A" stroke-width="8" stroke-linecap="round" stroke-linejoin="round"/>
<path d="M40.5 44.2969C42.597 44.2969 44.2969 42.597 44.2969 40.5C44.2969 38.403 42.597 36.7031 40.5 36.7031C38.403 36.7031 36.7031 38.403 36.7031 40.5C36.7031 42.597 38.403 44.2969 40.5 44.2969Z" fill="#FF3A3A"/>
<path d="M25.3125 44.2969C27.4095 44.2969 29.1094 42.597 29.1094 40.5C29.1094 38.403 27.4095 36.7031 25.3125 36.7031C23.2155 36.7031 21.5156 38.403 21.5156 40.5C21.5156 42.597 23.2155 44.2969 25.3125 44.2969Z" fill="#FF3A3A"/>
<path d="M55.6875 44.2969C57.7845 44.2969 59.4844 42.597 59.4844 40.5C59.4844 38.403 57.7845 36.7031 55.6875 36.7031C53.5905 36.7031 51.8906 38.403 51.8906 40.5C51.8906 42.597 53.5905 44.2969 55.6875 44.2969Z" fill="#FF3A3A"/>
</svg>
