<svg width="81" height="81" viewBox="0 0 81 81" fill="none" xmlns="http://www.w3.org/2000/svg">
<path d="M31.6406 40.5C33.7376 40.5 35.4375 38.8001 35.4375 36.7031C35.4375 34.6062 33.7376 32.9062 31.6406 32.9062C29.5437 32.9062 27.8438 34.6062 27.8438 36.7031C27.8438 38.8001 29.5437 40.5 31.6406 40.5Z" fill="#FD2F2F"/>
<path d="M49.3594 40.5C51.4563 40.5 53.1562 38.8001 53.1562 36.7031C53.1562 34.6062 51.4563 32.9062 49.3594 32.9062C47.2624 32.9062 45.5625 34.6062 45.5625 36.7031C45.5625 38.8001 47.2624 40.5 49.3594 40.5Z" fill="#FD2F2F"/>
<path d="M68.3438 68.3438L59.0625 60.75L49.7812 68.3438L40.5 60.75L31.2188 68.3438L21.9375 60.75L12.6562 68.3438V37.9688C12.6562 30.5841 15.5898 23.502 20.8115 18.2802C26.0332 13.0585 33.1154 10.125 40.5 10.125C47.8846 10.125 54.9668 13.0585 60.1885 18.2802C65.4102 23.502 68.3438 30.5841 68.3438 37.9688V68.3438Z" stroke="#FF3A3A" stroke-width="8" stroke-linecap="round" stroke-linejoin="round"/>
</svg>
