<svg width="81" height="81" viewBox="0 0 81 81" fill="none" xmlns="http://www.w3.org/2000/svg">
<path d="M25.3125 40.4977H55.6875" stroke="black" stroke-width="8" stroke-linecap="round" stroke-linejoin="round"/>
<path d="M32.9043 55.6863H20.248C16.2201 55.6863 12.3571 54.0862 9.50886 51.238C6.66065 48.3898 5.06055 44.5268 5.06055 40.4988C5.06055 36.4708 6.66065 32.6078 9.50886 29.7596C12.3571 26.9114 16.2201 25.3113 20.248 25.3113H32.9043" stroke="black" stroke-width="8" stroke-linecap="round" stroke-linejoin="round"/>
<path d="M48.0938 55.6863H60.75C64.778 55.6863 68.641 54.0862 71.4892 51.238C74.3374 48.3898 75.9375 44.5268 75.9375 40.4988C75.9375 36.4708 74.3374 32.6078 71.4892 29.7596C68.641 26.9114 64.778 25.3113 60.75 25.3113H48.0938" stroke="black" stroke-width="8" stroke-linecap="round" stroke-linejoin="round"/>
</svg>
