<svg width="81" height="81" viewBox="0 0 81 81" fill="none" xmlns="http://www.w3.org/2000/svg">
<path d="M14.3739 56.0032C10.6001 49.6413 9.27841 42.1205 10.6572 34.8532C12.0359 27.5858 16.0203 21.0717 21.862 16.5341C27.7038 11.9966 35.0011 9.7476 42.3836 10.2096C49.7662 10.6716 56.7262 13.8127 61.9567 19.0432C67.1871 24.2736 70.3283 31.2336 70.7903 38.6162C71.2524 45.9987 69.0034 53.296 64.4659 59.1378C59.9283 64.9795 53.4143 68.9639 46.1469 70.3427C38.8795 71.7215 31.3588 70.3999 24.9969 66.6261L24.997 66.6257L14.506 69.6231C14.072 69.7472 13.6127 69.7528 13.1757 69.6396C12.7387 69.5264 12.3399 69.2984 12.0207 68.9792C11.7016 68.66 11.4735 68.2612 11.3603 67.8242C11.2471 67.3872 11.2527 66.9279 11.3768 66.4939L14.3742 56.0029L14.3739 56.0032Z" stroke="black" stroke-width="8" stroke-linecap="round" stroke-linejoin="round"/>
<path d="M40.5 44.2969C42.597 44.2969 44.2969 42.597 44.2969 40.5C44.2969 38.403 42.597 36.7031 40.5 36.7031C38.403 36.7031 36.7031 38.403 36.7031 40.5C36.7031 42.597 38.403 44.2969 40.5 44.2969Z" fill="black"/>
<path d="M25.3125 44.2969C27.4095 44.2969 29.1094 42.597 29.1094 40.5C29.1094 38.403 27.4095 36.7031 25.3125 36.7031C23.2155 36.7031 21.5156 38.403 21.5156 40.5C21.5156 42.597 23.2155 44.2969 25.3125 44.2969Z" fill="black"/>
<path d="M55.6875 44.2969C57.7845 44.2969 59.4844 42.597 59.4844 40.5C59.4844 38.403 57.7845 36.7031 55.6875 36.7031C53.5905 36.7031 51.8906 38.403 51.8906 40.5C51.8906 42.597 53.5905 44.2969 55.6875 44.2969Z" fill="black"/>
</svg>
