<svg width="81" height="81" viewBox="0 0 81 81" fill="none" xmlns="http://www.w3.org/2000/svg">
<path d="M65.8125 46.8281C65.8125 53.5414 63.1457 59.9798 58.3986 64.7268C53.6516 69.4738 47.2133 72.1406 40.5 72.1406C33.7867 72.1406 27.3484 69.4738 22.6014 64.7268C17.8543 59.9798 15.1875 53.5414 15.1875 46.8281V34.1719C15.1875 27.4586 17.8543 21.0202 22.6014 16.2732C27.3484 11.5262 33.7867 8.85938 40.5 8.85938C47.2133 8.85938 53.6516 11.5262 58.3986 16.2732C63.1457 21.0202 65.8125 27.4586 65.8125 34.1719V46.8281Z" stroke="black" stroke-width="8" stroke-linecap="round" stroke-linejoin="round"/>
<path d="M65.8125 40.5H15.1875" stroke="black" stroke-width="8" stroke-linecap="round" stroke-linejoin="round"/>
<path d="M49.3594 32.9062C51.4563 32.9062 53.1562 31.2063 53.1562 29.1094C53.1562 27.0124 51.4563 25.3125 49.3594 25.3125C47.2624 25.3125 45.5625 27.0124 45.5625 29.1094C45.5625 31.2063 47.2624 32.9062 49.3594 32.9062Z" fill="black"/>
<path d="M31.6406 32.9062C33.7376 32.9062 35.4375 31.2063 35.4375 29.1094C35.4375 27.0124 33.7376 25.3125 31.6406 25.3125C29.5437 25.3125 27.8438 27.0124 27.8438 29.1094C27.8438 31.2063 29.5437 32.9062 31.6406 32.9062Z" fill="black"/>
<path d="M17.7188 8.85938L24.1463 14.8508" stroke="black" stroke-width="8" stroke-linecap="round" stroke-linejoin="round"/>
<path d="M63.2812 8.85938L56.8535 14.851" stroke="black" stroke-width="8" stroke-linecap="round" stroke-linejoin="round"/>
</svg>
